<svg viewBox="0 0 72 72" xmlns="http://www.w3.org/2000/svg"><g stroke="#000" stroke-miterlimit="10"><path d="m52.5 64.7644h-33c-.5523 0-1-.4477-1-1v-56c0-.5523.4477-1 1-1h33c.5523 0 1 .4477 1 1v56c0 .5523-.4477 1-1 1z" fill="none" stroke-linecap="round" stroke-linejoin="round" stroke-width="2"/><path d="m48.0339 55h-24.0678c-.5336 0-.9661-.4325-.9661-.9661v-40.0678c0-.5336.4325-.9661.9661-.9661h24.0678c.5336 0 .9661.4325.9661.9661v40.0678c0 .5336-.4325.9661-.9661.9661z" fill="none" stroke-linecap="round" stroke-linejoin="round" stroke-width="2"/><circle cx="36" cy="60" r="2"/><path d="m31 10h10z" fill="none" stroke-linecap="round" stroke-linejoin="round" stroke-width="2"/></g></svg>